<svg height="80" viewBox="0 0 52.916665 21.166667" width="200" xmlns="http://www.w3.org/2000/svg" xmlns:xlink="http://www.w3.org/1999/xlink"><filter id="a" color-interpolation-filters="sRGB" height="1.123056" width="1.060702" x="-.030351" y="-.061528"><feGaussianBlur stdDeviation=".25231486"/></filter><g transform="translate(0 -275.83332)"><path d="m4.5180004 288.40126c.00226-6.27245.064123-7.73799.3395029-8.10439 1.2321044-1.64156 4.5153816-2.92786 8.6819027-3.40234.988252-.11235 4.555058-.13671 19.972704-.13671h18.768595v19.27617h-47.7615565zm0 0" fill="#fff" stroke-width=".187959"/><rect fill="none" height="19.84375" rx="1.311837" ry="1.295217" stroke="#13243c" stroke-width="1.322917" width="51.59375" x=".661458" y="276.49478"/><path d="m13.515748 276.49478 6.455553 10.00339-6.455553 9.87364z" fill="#13243c"/><path d="m.66145831 276.49478h13.383457v19.84375h-13.383457z" fill="#13243c"/><path d="m14.045047 277.15558v.15917l5.926254 9.18342-5.926254 9.06404v.11524h36.89749c.37625 0 .650608-.27711.650608-.6351v-17.25166c0-.35798-.274358-.63511-.650608-.63511z" fill="#fff" filter="url(#a)" opacity=".428" stroke="#69f" stroke-width="1.068123"/><g stroke-width=".264583" transform="matrix(.90106699 0 0 1.0453896 4.059263 -7.774569)"><path d="m20.131834 283.07455v-1.70049l-1.480013-2.33991h.956359l.950846 1.59852.931554-1.59852h.939822l-1.485525 2.34542v1.69498z"/><path d="m22.237477 281.56974q0-.38585.190169-.7469.190169-.36105.537435-.55122.350022-.19016.779969-.19016.664215 0 1.088651.4327.424435.42995.424435 1.08865 0 .66421-.429947 1.10243-.427192.43546-1.077626.43546-.402388 0-.768946-.1819-.363802-.1819-.553971-.53192-.190169-.35278-.190169-.85714zm.79375.0413q0 .43546.206705.66697.206706.23151.509875.23151.303168 0 .507118-.23151.206705-.23151.206705-.67248 0-.42995-.206705-.66146-.20395-.23151-.507118-.23151-.303169 0-.509875.23151-.206705.23151-.206705.66697z"/><path d="m27.793726 283.07455v-.43821q-.159852.23426-.421679.36931-.259072.13505-.54846.13505-.2949 0-.529166-.12954-.234267-.12953-.338998-.3638-.104731-.23426-.104731-.64768v-1.85208h.774458v1.34497q0 .61736.04134.75792.0441.1378.157096.22048.113.0799.286632.0799.198438 0 .355534-.10749.157097-.11024.214974-.27009.05788-.16261.05788-.791v-1.23472h.774457v2.92695z"/><path d="m30.232854 283.07455v-3.3569h-1.198894v-.6835h3.210829v.6835h-1.196137v3.3569z"/><path d="m34.276019 283.07455v-.43821q-.159853.23426-.42168.36931-.259071.13505-.548459.13505-.294901 0-.529167-.12954-.234267-.12953-.338997-.3638-.104731-.23426-.104731-.64768v-1.85208h.774457v1.34497q0 .61736.04134.75792.0441.1378.157097.22048.112999.0799.286632.0799.198437 0 .355533-.10749.157097-.11024.214974-.27009.05788-.16261.05788-.791v-1.23472h.774457v2.92695z"/><path d="m35.767056 283.07455v-4.0404h.774457v1.4552q.35829-.40789.848872-.40789.534678 0 .8847.3886.350022.38585.350022 1.1107 0 .74965-.35829 1.1548-.355534.40514-.865408.40514-.250803 0-.496094-.12402-.242535-.12678-.418924-.37207v.42994zm.768945-1.52686q0 .45475.143316.67248.201193.30868.534679.30868.256315 0 .43546-.21773.181901-.22048.181901-.69177 0-.50161-.181901-.7221-.181901-.22324-.465777-.22324-.278364 0-.463021.21773-.184657.21498-.184657.65595z"/><path d="m40.945723 282.143.771701.12954q-.148828.42443-.471289.64767-.319705.22049-.802018.22049-.763433 0-1.129992-.49885-.289388-.39963-.289388-1.00872 0-.72761.380339-1.13826.380339-.41341.961871-.41341.65319 0 1.030772.4327.377583.42995.361046 1.32016h-1.940278q.0083.34451.187414.53743.179145.19017.446484.19017.181901 0 .305925-.0992.124023-.0992.187413-.31971zm.0441-.78273q-.0083-.33624-.173633-.50987-.165364-.17639-.402387-.17639-.253559 0-.418924.18466-.165364.18466-.162608.5016z"/><path d="m44.873131 283.07455v-3.3569h-1.198893v-.6835h3.210829v.6835h-1.196137v3.3569z"/><path d="m48.445006 283.07455-1.444184-4.0404h.884701l1.022504 2.99034.989431-2.99034h.865408l-1.44694 4.0404z"/></g></g><g transform="matrix(.09196933 0 0 .08086676 1.081235 6.276577)"><path d="m154 17.5c-1.82-6.73-7.07-12-13.8-13.8-9.04-3.49-96.6-5.2-122 .1-6.73 1.82-12 7.07-13.8 13.8-4.08 17.9-4.39 56.6.1 74.9 1.82 6.73 7.07 12 13.8 13.8 17.9 4.12 103 4.7 122 0 6.73-1.82 12-7.07 13.8-13.8 4.35-19.5 4.66-55.8-.1-75z" fill="#f00"/><path d="m105 55-40.8-23.4v46.8z" fill="#fff"/></g></svg>