<svg height="80" viewBox="0 0 52.916665 21.166667" width="200" xmlns="http://www.w3.org/2000/svg" xmlns:xlink="http://www.w3.org/1999/xlink"><filter id="a" color-interpolation-filters="sRGB" height="1.065388" width="1.032255" x="-.016127" y="-.032694"><feGaussianBlur stdDeviation=".25231486"/></filter><g transform="translate(0 -275.83332)"><path d="m4.5180004 288.40126c.00226-6.27245.064123-7.73799.3395029-8.10439 1.2321044-1.64156 4.5153816-2.92786 8.6819027-3.40234.988252-.11235 4.555058-.13671 19.972704-.13671h18.768595v19.27617h-47.7615565zm0 0" fill="#fff" stroke-width=".187959"/><rect fill="none" height="19.84375" rx="1.311837" ry="1.295217" stroke="#13243c" stroke-width="1.322917" width="51.59375" x=".661458" y="276.49478"/><path d="m13.515748 276.49478 6.455553 10.00339-6.455553 9.87364z" fill="#13243c"/><path d="m.66145831 276.49478h13.383457v19.84375h-13.383457z" fill="#13243c"/><path d="m14.045047 277.15558v.15917l5.926254 9.18342-5.926254 9.06404v.11524h36.89749c.37625 0 .650608-.27711.650608-.6351v-17.25166c0-.35798-.274358-.63511-.650608-.63511z" fill="#fff" filter="url(#a)" opacity=".428" stroke="#69f" stroke-width="1.068123"/><g stroke-width=".264583"><g transform="translate(.557018 -.557018)"><path d="m22.189751 292.82242v-.41548q-.313159.48989-.920874.48989-.393774 0-.725537-.21704-.328662-.21704-.511596-.60461-.179834-.39068-.179834-.89607 0-.493.164331-.89297.164331-.40308.492993-.61702.328662-.21394.734839-.21394.297656 0 .5302.12713.232544.12402.378271.32556v-1.63091h.555005v4.54546zm-1.764233-1.64331q0 .63252.26665.94568.266651.31316.629419.31316.365869 0 .620118-.29766.257348-.30076.257348-.91467 0-.67593-.260449-.99219-.260449-.31626-.641821-.31626-.372071 0-.623218.30386-.248047.30385-.248047.95808z"/><path d="m23.581915 292.82242v-3.29282h.502294v.49919q.192237-.35037.353467-.46199.164331-.11162.359668-.11162.282153 0 .573609.17984l-.192237.51779q-.204638-.12092-.409277-.12092-.182935 0-.328662.11162-.145728.10852-.207739.30386-.09302.29766-.09302.65112v1.72393z"/><path d="m27.963043 291.76202.576709.0713q-.136426.5054-.505396.78445-.36897.27905-.942578.27905-.722437 0-1.147217-.44338-.421679-.44649-.421679-1.24954 0-.83095.42788-1.28984.427881-.45889 1.11001-.45889.660425 0 1.079004.44959.418579.44958.418579 1.26504 0 .0496-.0031.14882h-2.455665q.03101.54261.306958.83096.275953.28836.688331.28836.306958 0 .523999-.16123.217041-.16124.344165-.5147zm-1.832447-.90227h1.838648q-.03721-.41548-.21084-.62322-.26665-.32246-.691431-.32246-.384472 0-.648022.25735-.260449.25735-.288355.68833z"/><path d="m31.392291 292.41624q-.310059.26355-.598413.37207-.285254.10852-.613916.10852-.542603 0-.834058-.26355-.291455-.26665-.291455-.67903 0-.24184.10852-.44028.111621-.20154.288355-.32246.179834-.12092.403076-.18293.164331-.0434.496094-.0837.675928-.0806.995288-.19224.0031-.11472.0031-.14572 0-.34107-.158129-.4806-.213941-.18913-.635621-.18913-.393774 0-.58291.13953-.186035.13642-.275952.48679l-.545703-.0744q.07441-.35036.244946-.5643.170533-.21704.492993-.33177.322461-.11782.747242-.11782.421679 0 .685229.0992.26355.0992.387573.25115.124024.14883.173633.37827.0279.14263.0279.5147v.74414q0 .77824.03411.98598.03721.20464.142627.39378h-.58291q-.08682-.17363-.111621-.40618zm-.04651-1.24643q-.303858.12402-.911572.21084-.344165.0496-.486792.11162-.142627.062-.220142.18293-.07751.11782-.07751.26355 0 .22324.167432.37207.170532.14883.496094.14883.322461 0 .573608-.13953.251148-.14262.36897-.38757.08992-.18914.08992-.55811z"/><path d="m32.778253 292.82242v-3.29282h.499194v.46198q.155029-.24184.412378-.38757.257348-.14883.586011-.14883.365869 0 .598413.15193.235644.15193.331762.42478.390674-.57671 1.016993-.57671.489892 0 .753442.27285.26355.26975.26355.83406v2.26033h-.555005v-2.07429q0-.33487-.05581-.48059-.05271-.14883-.195337-.23875-.142627-.0899-.334863-.0899-.347266 0-.576709.23255-.229443.22944-.229443.73794v1.91306h-.558106v-2.13941q0-.37207-.136425-.5581-.136426-.18604-.446485-.18604-.235644 0-.437182.12403-.198438.12402-.288355.36277-.08992.23874-.08992.68833v1.70842z"/><path d="m38.077153 288.91878v-.64182h.558106v.64182zm0 3.90364v-3.29282h.558106v3.29282z"/><path d="m41.645929 292.82242v-.48369q-.384473.5581-1.044898.5581-.291455 0-.545703-.11162-.251147-.11162-.375171-.27905-.120923-.17053-.170532-.41548-.03411-.16433-.03411-.5209v-2.04018h.558106v1.82624q0 .43718.03411.58911.05271.22014.223243.34727.170532.12402.421679.12402.251148 0 .471289-.12712.220142-.13023.310059-.35037.09302-.22324.09302-.64492v-1.76423h.558106v3.29282z"/><path d="m43.022589 292.82242v-3.29282h.499194v.46198q.155029-.24184.412378-.38757.257349-.14883.586011-.14883.365869 0 .598413.15193.235644.15193.331762.42478.390674-.57671 1.016993-.57671.489892 0 .753442.27285.26355.26975.26355.83406v2.26033h-.555005v-2.07429q0-.33487-.05581-.48059-.05271-.14883-.195337-.23875-.142626-.0899-.334863-.0899-.347265 0-.576709.23255-.229443.22944-.229443.73794v1.91306h-.558106v-2.13941q0-.37207-.136425-.5581-.136426-.18604-.446485-.18604-.235644 0-.437182.12403-.198438.12402-.288355.36277-.08992.23874-.08992.68833v1.70842z"/></g><g transform="matrix(.98699005 0 0 1.1356412 .521168 -37.57003)"><path d="m20.131834 283.07455v-1.70049l-1.480013-2.33991h.956359l.950846 1.59852.931554-1.59852h.939822l-1.485525 2.34542v1.69498z"/><path d="m22.237477 281.56974q0-.38585.190169-.7469.190169-.36105.537435-.55122.350022-.19016.779969-.19016.664215 0 1.088651.4327.424435.42995.424435 1.08865 0 .66421-.429947 1.10243-.427192.43546-1.077626.43546-.402388 0-.768946-.1819-.363802-.1819-.553971-.53192-.190169-.35278-.190169-.85714zm.79375.0413q0 .43546.206705.66697.206706.23151.509875.23151.303168 0 .507118-.23151.206705-.23151.206705-.67248 0-.42995-.206705-.66146-.20395-.23151-.507118-.23151-.303169 0-.509875.23151-.206705.23151-.206705.66697z"/><path d="m27.793726 283.07455v-.43821q-.159852.23426-.421679.36931-.259072.13505-.54846.13505-.2949 0-.529166-.12954-.234267-.12953-.338998-.3638-.104731-.23426-.104731-.64768v-1.85208h.774458v1.34497q0 .61736.04134.75792.0441.1378.157096.22048.113.0799.286632.0799.198438 0 .355534-.10749.157097-.11024.214974-.27009.05788-.16261.05788-.791v-1.23472h.774457v2.92695z"/><path d="m30.232854 283.07455v-3.3569h-1.198894v-.6835h3.210829v.6835h-1.196137v3.3569z"/><path d="m34.276019 283.07455v-.43821q-.159853.23426-.42168.36931-.259071.13505-.548459.13505-.294901 0-.529167-.12954-.234267-.12953-.338997-.3638-.104731-.23426-.104731-.64768v-1.85208h.774457v1.34497q0 .61736.04134.75792.0441.1378.157097.22048.112999.0799.286632.0799.198437 0 .355533-.10749.157097-.11024.214974-.27009.05788-.16261.05788-.791v-1.23472h.774457v2.92695z"/><path d="m35.767056 283.07455v-4.0404h.774457v1.4552q.35829-.40789.848872-.40789.534678 0 .8847.3886.350022.38585.350022 1.1107 0 .74965-.35829 1.1548-.355534.40514-.865408.40514-.250803 0-.496094-.12402-.242535-.12678-.418924-.37207v.42994zm.768945-1.52686q0 .45475.143316.67248.201193.30868.534679.30868.256315 0 .43546-.21773.181901-.22048.181901-.69177 0-.50161-.181901-.7221-.181901-.22324-.465777-.22324-.278364 0-.463021.21773-.184657.21498-.184657.65595z"/><path d="m40.945723 282.143.771701.12954q-.148828.42443-.471289.64767-.319705.22049-.802018.22049-.763433 0-1.129992-.49885-.289388-.39963-.289388-1.00872 0-.72761.380339-1.13826.380339-.41341.961871-.41341.65319 0 1.030772.4327.377583.42995.361046 1.32016h-1.940278q.0083.34451.187414.53743.179145.19017.446484.19017.181901 0 .305925-.0992.124023-.0992.187413-.31971zm.0441-.78273q-.0083-.33624-.173633-.50987-.165364-.17639-.402387-.17639-.253559 0-.418924.18466-.165364.18466-.162608.5016z"/><path d="m44.873131 283.07455v-3.3569h-1.198893v-.6835h3.210829v.6835h-1.196137v3.3569z"/><path d="m48.445006 283.07455-1.444184-4.0404h.884701l1.022504 2.99034.989431-2.99034h.865408l-1.44694 4.0404z"/></g></g></g><g transform="matrix(.09196933 0 0 .08086676 1.081235 6.276577)"><path d="m154 17.5c-1.82-6.73-7.07-12-13.8-13.8-9.04-3.49-96.6-5.2-122 .1-6.73 1.82-12 7.07-13.8 13.8-4.08 17.9-4.39 56.6.1 74.9 1.82 6.73 7.07 12 13.8 13.8 17.9 4.12 103 4.7 122 0 6.73-1.82 12-7.07 13.8-13.8 4.35-19.5 4.66-55.8-.1-75z" fill="#f00"/><path d="m105 55-40.8-23.4v46.8z" fill="#fff"/></g></svg>